REM DIRINDEX 1\8,1\2\11,1\3\12,1\3\14,1\5\15,1\5\16,1\6\17,1\6\18,1\4\19,1\4\20,1\4\21,1\4\22,1\7\23,1\7\24,1\7\25,1\2\9\26,1\2\9\27,1\2\10\28,1\2\10\29,1\2\10\30,1\2\10\31,1\2\10\32,1\3\13\33,1\3\13\34,1\3\13\35
REM DIRNAME cjc123,folder01,folder02,folder03,folder04,folder05,folder06,folder07,folder08,folder09,folder10,folder11,folder12,folder13,folder14,folder15,folder16,folder17,folder18,folder19,folder20,folder21,folder22,folder23,folder24,folder25,folder26,folder27,folder28,folder29,folder30,folder31,folder32,folder33,folder34
TITLE ""
FILE "143 143_例文UNIT4_SET3.mp3" MP3
  TRACK 01 AUDIO
    TITLE "22:cjc123_3555"
    INDEX 01 00:00:00
  TRACK 02 AUDIO
    TITLE "0:"
    INDEX 01 00:02:45
  TRACK 03 AUDIO
    TITLE "19:cjc123_3556"
    INDEX 01 00:03:19
  TRACK 04 AUDIO
    TITLE "0:"
    INDEX 01 00:07:37
  TRACK 05 AUDIO
    TITLE "20:cjc123_3557"
    INDEX 01 00:07:66
  TRACK 06 AUDIO
    TITLE "0:"
    INDEX 01 00:12:07
  TRACK 07 AUDIO
    TITLE "21:cjc123_3558"
    INDEX 01 00:12:40
  TRACK 08 AUDIO
    TITLE "0:"
    INDEX 01 00:16:55
  TRACK 09 AUDIO
    TITLE "19:cjc123_3559"
    INDEX 01 00:17:29
  TRACK 10 AUDIO
    TITLE "0:"
    INDEX 01 00:21:39
  TRACK 11 AUDIO
    TITLE "20:cjc123_3560"
    INDEX 01 00:22:05
  TRACK 12 AUDIO
    TITLE "0:"
    INDEX 01 00:27:02
  TRACK 13 AUDIO
    TITLE "21:cjc123_3561"
    INDEX 01 00:27:34
  TRACK 14 AUDIO
    TITLE "0:"
    INDEX 01 00:31:45
  TRACK 15 AUDIO
    TITLE "19:cjc123_3562"
    INDEX 01 00:32:25
  TRACK 16 AUDIO
    TITLE "0:"
    INDEX 01 00:36:58
  TRACK 17 AUDIO
    TITLE "20:cjc123_3563"
    INDEX 01 00:37:20
  TRACK 18 AUDIO
    TITLE "0:"
    INDEX 01 00:42:16
  TRACK 19 AUDIO
    TITLE "21:cjc123_3564"
    INDEX 01 00:42:49
  TRACK 20 AUDIO
    TITLE "0:"
    INDEX 01 00:47:03
  TRACK 21 AUDIO
    TITLE "19:cjc123_3565"
    INDEX 01 00:47:60
  TRACK 22 AUDIO
    TITLE "0:"
    INDEX 01 00:51:28
  TRACK 23 AUDIO
    TITLE "20:cjc123_3566"
    INDEX 01 00:51:65
  TRACK 24 AUDIO
    TITLE "0:"
    INDEX 01 00:55:18
  TRACK 25 AUDIO
    TITLE "21:cjc123_3567"
    INDEX 01 00:55:55
  TRACK 26 AUDIO
    TITLE "0:"
    INDEX 01 00:59:22
  TRACK 27 AUDIO
    TITLE "19:cjc123_3568"
    INDEX 01 00:59:69
  TRACK 28 AUDIO
    TITLE "0:"
    INDEX 01 01:04:27
  TRACK 29 AUDIO
    TITLE "20:cjc123_3569"
    INDEX 01 01:04:60
  TRACK 30 AUDIO
    TITLE "0:"
    INDEX 01 01:10:04
  TRACK 31 AUDIO
    TITLE "21:cjc123_3570"
    INDEX 01 01:10:26
  TRACK 32 AUDIO
    TITLE "0:"
    INDEX 01 01:14:57
  TRACK 33 AUDIO
    TITLE "19:cjc123_3571"
    INDEX 01 01:15:31
  TRACK 34 AUDIO
    TITLE "0:"
    INDEX 01 01:20:53
  TRACK 35 AUDIO
    TITLE "20:cjc123_3572"
    INDEX 01 01:21:18
  TRACK 36 AUDIO
    TITLE "0:"
    INDEX 01 01:26:58
  TRACK 37 AUDIO
    TITLE "21:cjc123_3573"
    INDEX 01 01:27:14
  TRACK 38 AUDIO
    TITLE "0:"
    INDEX 01 01:32:37
  TRACK 39 AUDIO
    TITLE "19:cjc123_3574"
    INDEX 01 01:33:11
  TRACK 40 AUDIO
    TITLE "0:"
    INDEX 01 01:39:04
  TRACK 41 AUDIO
    TITLE "20:cjc123_3575"
    INDEX 01 01:39:37
  TRACK 42 AUDIO
    TITLE "0:"
    INDEX 01 01:46:43
  TRACK 43 AUDIO
    TITLE "21:cjc123_3576"
    INDEX 01 01:46:70
  TRACK 44 AUDIO
    TITLE "0:"
    INDEX 01 01:52:61
  TRACK 45 AUDIO
    TITLE "19:cjc123_3577"
    INDEX 01 01:53:43
  TRACK 46 AUDIO
    TITLE "0:"
    INDEX 01 01:59:03
  TRACK 47 AUDIO
    TITLE "20:cjc123_3578"
    INDEX 01 01:59:34
  TRACK 48 AUDIO
    TITLE "0:"
    INDEX 01 02:04:60
  TRACK 49 AUDIO
    TITLE "21:cjc123_3579"
    INDEX 01 02:05:17
  TRACK 50 AUDIO
    TITLE "0:"
    INDEX 01 02:10:53
  TRACK 51 AUDIO
    TITLE "19:cjc123_3580"
    INDEX 01 02:11:27
  TRACK 52 AUDIO
    TITLE "0:"
    INDEX 01 02:16:01
  TRACK 53 AUDIO
    TITLE "20:cjc123_3581"
    INDEX 01 02:16:17
  TRACK 54 AUDIO
    TITLE "0:"
    INDEX 01 02:22:49
  TRACK 55 AUDIO
    TITLE "21:cjc123_3582"
    INDEX 01 02:23:05
  TRACK 56 AUDIO
    TITLE "0:"
    INDEX 01 02:27:54
  TRACK 57 AUDIO
    TITLE "19:cjc123_3583"
    INDEX 01 02:28:20
  TRACK 58 AUDIO
    TITLE "0:"
    INDEX 01 02:32:74
  TRACK 59 AUDIO
    TITLE "20:cjc123_3584"
    INDEX 01 02:33:37
  TRACK 60 AUDIO
    TITLE "0:"
    INDEX 01 02:38:69
  TRACK 61 AUDIO
    TITLE "21:cjc123_3585"
    INDEX 01 02:39:27
  TRACK 62 AUDIO
    TITLE "0:"
    INDEX 01 02:44:07
  TRACK 63 AUDIO
    TITLE "19:cjc123_3586"
    INDEX 01 02:44:62
  TRACK 64 AUDIO
    TITLE "0:"
    INDEX 01 02:47:60
  TRACK 65 AUDIO
    TITLE "20:cjc123_3587"
    INDEX 01 02:48:23
  TRACK 66 AUDIO
    TITLE "0:"
    INDEX 01 02:51:21
  TRACK 67 AUDIO
    TITLE "21:cjc123_3588"
    INDEX 01 02:51:48
  TRACK 68 AUDIO
    TITLE "0:"
    INDEX 01 02:54:45
  TRACK 69 AUDIO
    TITLE "19:cjc123_3589"
    INDEX 01 02:55:23
  TRACK 70 AUDIO
    TITLE "0:"
    INDEX 01 03:00:32
  TRACK 71 AUDIO
    TITLE "20:cjc123_3590"
    INDEX 01 03:00:63
  TRACK 72 AUDIO
    TITLE "0:"
    INDEX 01 03:06:09
  TRACK 73 AUDIO
    TITLE "21:cjc123_3591"
    INDEX 01 03:06:40
  TRACK 74 AUDIO
    TITLE "0:"
    INDEX 01 03:11:49
  TRACK 75 AUDIO
    TITLE "19:cjc123_3592"
    INDEX 01 03:12:37
  TRACK 76 AUDIO
    TITLE "0:"
    INDEX 01 03:15:63
  TRACK 77 AUDIO
    TITLE "20:cjc123_3593"
    INDEX 01 03:16:17
  TRACK 78 AUDIO
    TITLE "0:"
    INDEX 01 03:19:37
  TRACK 79 AUDIO
    TITLE "21:cjc123_3594"
    INDEX 01 03:19:72
  TRACK 80 AUDIO
    TITLE "0:"
    INDEX 01 03:23:25
  TRACK 81 AUDIO
    TITLE "19:cjc123_3595"
    INDEX 01 03:24:11
  TRACK 82 AUDIO
    TITLE "0:"
    INDEX 01 03:27:48
  TRACK 83 AUDIO
    TITLE "20:cjc123_3596"
    INDEX 01 03:28:04
  TRACK 84 AUDIO
    TITLE "0:"
    INDEX 01 03:31:48
  TRACK 85 AUDIO
    TITLE "21:cjc123_3597"
    INDEX 01 03:32:06
  TRACK 86 AUDIO
    TITLE "0:"
    INDEX 01 03:35:42
  TRACK 87 AUDIO
    TITLE "19:cjc123_3598"
    INDEX 01 03:36:27
  TRACK 88 AUDIO
    TITLE "0:"
    INDEX 01 03:39:12
  TRACK 89 AUDIO
    TITLE "20:cjc123_3599"
    INDEX 01 03:39:39
  TRACK 90 AUDIO
    TITLE "0:"
    INDEX 01 03:42:12
  TRACK 91 AUDIO
    TITLE "21:cjc123_3600"
    INDEX 01 03:42:50
  TRACK 92 AUDIO
    TITLE "0:"
    INDEX 01 03:45:36
